<mxfile host="app.diagrams.net" agent="Mozilla/5.0 (Windows NT 10.0; Win64; x64) AppleWebKit/537.36 (KHTML, like Gecko) Chrome/130.0.0.0 Safari/537.36" version="24.8.2">
  <diagram name="Сторінка-1" id="N9mxUttRVYV5hYKPjUW0">
    <mxGraphModel grid="1" page="1" gridSize="10" guides="1" tooltips="1" connect="1" arrows="1" fold="1" pageScale="1" pageWidth="827" pageHeight="1169" math="0" shadow="0">
      <root>
        <mxCell id="0" />
        <mxCell id="1" parent="0" />
        <mxCell id="OuBc7uFUmqyPZBF64Fwl-3" value="" style="edgeStyle=orthogonalEdgeStyle;rounded=0;orthogonalLoop=1;jettySize=auto;html=1;" edge="1" parent="1" source="OuBc7uFUmqyPZBF64Fwl-1" target="OuBc7uFUmqyPZBF64Fwl-2">
          <mxGeometry relative="1" as="geometry" />
        </mxCell>
        <mxCell id="OuBc7uFUmqyPZBF64Fwl-1" value="&lt;font style=&quot;font-size: 18px;&quot;&gt;Start&lt;/font&gt;" style="ellipse;whiteSpace=wrap;html=1;" vertex="1" parent="1">
          <mxGeometry x="100" y="40" width="120" height="80" as="geometry" />
        </mxCell>
        <mxCell id="OuBc7uFUmqyPZBF64Fwl-5" value="" style="edgeStyle=orthogonalEdgeStyle;rounded=0;orthogonalLoop=1;jettySize=auto;html=1;" edge="1" parent="1" source="OuBc7uFUmqyPZBF64Fwl-2">
          <mxGeometry relative="1" as="geometry">
            <mxPoint x="160" y="260" as="targetPoint" />
          </mxGeometry>
        </mxCell>
        <mxCell id="OuBc7uFUmqyPZBF64Fwl-2" value="Оголошення змінних&lt;br&gt;operation&lt;div&gt;InitialBalance = 1000&lt;/div&gt;&lt;div&gt;Amount&lt;/div&gt;" style="rounded=0;whiteSpace=wrap;html=1;" vertex="1" parent="1">
          <mxGeometry x="95" y="160" width="130" height="70" as="geometry" />
        </mxCell>
        <mxCell id="OuBc7uFUmqyPZBF64Fwl-14" value="" style="edgeStyle=orthogonalEdgeStyle;rounded=0;orthogonalLoop=1;jettySize=auto;html=1;" edge="1" parent="1" source="OuBc7uFUmqyPZBF64Fwl-6" target="OuBc7uFUmqyPZBF64Fwl-12">
          <mxGeometry relative="1" as="geometry" />
        </mxCell>
        <mxCell id="OuBc7uFUmqyPZBF64Fwl-6" value="printf : введення операції&lt;div&gt;scanf : збереження&lt;/div&gt;" style="shape=parallelogram;perimeter=parallelogramPerimeter;whiteSpace=wrap;html=1;fixedSize=1;" vertex="1" parent="1">
          <mxGeometry x="70" y="260" width="180" height="60" as="geometry" />
        </mxCell>
        <mxCell id="OuBc7uFUmqyPZBF64Fwl-9" value="" style="edgeStyle=orthogonalEdgeStyle;rounded=0;orthogonalLoop=1;jettySize=auto;html=1;" edge="1" parent="1" source="OuBc7uFUmqyPZBF64Fwl-7" target="OuBc7uFUmqyPZBF64Fwl-8">
          <mxGeometry relative="1" as="geometry" />
        </mxCell>
        <mxCell id="OuBc7uFUmqyPZBF64Fwl-7" value="operation == 0" style="rhombus;whiteSpace=wrap;html=1;" vertex="1" parent="1">
          <mxGeometry x="105" y="490" width="110" height="80" as="geometry" />
        </mxCell>
        <mxCell id="OuBc7uFUmqyPZBF64Fwl-8" value="Зчитування поточного балансу" style="whiteSpace=wrap;html=1;" vertex="1" parent="1">
          <mxGeometry x="100" y="610" width="120" height="60" as="geometry" />
        </mxCell>
        <mxCell id="OuBc7uFUmqyPZBF64Fwl-15" value="" style="edgeStyle=orthogonalEdgeStyle;rounded=0;orthogonalLoop=1;jettySize=auto;html=1;" edge="1" parent="1" source="OuBc7uFUmqyPZBF64Fwl-12" target="OuBc7uFUmqyPZBF64Fwl-7">
          <mxGeometry relative="1" as="geometry" />
        </mxCell>
        <mxCell id="OuBc7uFUmqyPZBF64Fwl-12" value="while (true)" style="rhombus;whiteSpace=wrap;html=1;" vertex="1" parent="1">
          <mxGeometry x="120" y="360" width="80" height="80" as="geometry" />
        </mxCell>
        <mxCell id="OuBc7uFUmqyPZBF64Fwl-18" value="TRUE" style="text;strokeColor=none;align=center;fillColor=none;html=1;verticalAlign=middle;whiteSpace=wrap;rounded=0;" vertex="1" parent="1">
          <mxGeometry x="165" y="450" width="60" height="30" as="geometry" />
        </mxCell>
        <mxCell id="OuBc7uFUmqyPZBF64Fwl-19" value="" style="endArrow=none;html=1;rounded=0;" edge="1" parent="1">
          <mxGeometry width="50" height="50" relative="1" as="geometry">
            <mxPoint x="200" y="400" as="sourcePoint" />
            <mxPoint x="280" y="400" as="targetPoint" />
          </mxGeometry>
        </mxCell>
        <mxCell id="OuBc7uFUmqyPZBF64Fwl-20" value="FALSE" style="text;strokeColor=none;align=center;fillColor=none;html=1;verticalAlign=middle;whiteSpace=wrap;rounded=0;" vertex="1" parent="1">
          <mxGeometry x="210" y="370" width="60" height="30" as="geometry" />
        </mxCell>
        <mxCell id="OuBc7uFUmqyPZBF64Fwl-21" value="TRUE" style="text;strokeColor=none;align=center;fillColor=none;html=1;verticalAlign=middle;whiteSpace=wrap;rounded=0;" vertex="1" parent="1">
          <mxGeometry x="165" y="570" width="60" height="30" as="geometry" />
        </mxCell>
        <mxCell id="OuBc7uFUmqyPZBF64Fwl-23" value="FALSE" style="text;strokeColor=none;align=center;fillColor=none;html=1;verticalAlign=middle;whiteSpace=wrap;rounded=0;" vertex="1" parent="1">
          <mxGeometry x="40" y="500" width="60" height="30" as="geometry" />
        </mxCell>
        <mxCell id="OuBc7uFUmqyPZBF64Fwl-24" value="" style="endArrow=none;html=1;rounded=0;" edge="1" parent="1">
          <mxGeometry width="50" height="50" relative="1" as="geometry">
            <mxPoint x="-30" y="530" as="sourcePoint" />
            <mxPoint x="105" y="529.5" as="targetPoint" />
          </mxGeometry>
        </mxCell>
        <mxCell id="OuBc7uFUmqyPZBF64Fwl-26" value="" style="endArrow=none;html=1;rounded=0;" edge="1" parent="1">
          <mxGeometry width="50" height="50" relative="1" as="geometry">
            <mxPoint x="-30" y="530" as="sourcePoint" />
            <mxPoint x="-30" y="300" as="targetPoint" />
          </mxGeometry>
        </mxCell>
        <mxCell id="OuBc7uFUmqyPZBF64Fwl-37" value="" style="edgeStyle=orthogonalEdgeStyle;rounded=0;orthogonalLoop=1;jettySize=auto;html=1;" edge="1" parent="1" source="OuBc7uFUmqyPZBF64Fwl-27" target="OuBc7uFUmqyPZBF64Fwl-36">
          <mxGeometry relative="1" as="geometry" />
        </mxCell>
        <mxCell id="OuBc7uFUmqyPZBF64Fwl-27" value="operation == 1" style="rhombus;whiteSpace=wrap;html=1;" vertex="1" parent="1">
          <mxGeometry x="-180" y="260" width="100" height="80" as="geometry" />
        </mxCell>
        <mxCell id="OuBc7uFUmqyPZBF64Fwl-31" value="" style="endArrow=classic;html=1;rounded=0;entryX=0.5;entryY=0;entryDx=0;entryDy=0;" edge="1" parent="1">
          <mxGeometry width="50" height="50" relative="1" as="geometry">
            <mxPoint x="-30" y="300" as="sourcePoint" />
            <mxPoint x="-80" y="300" as="targetPoint" />
          </mxGeometry>
        </mxCell>
        <mxCell id="OuBc7uFUmqyPZBF64Fwl-32" value="" style="endArrow=classic;html=1;rounded=0;" edge="1" parent="1" target="OuBc7uFUmqyPZBF64Fwl-34">
          <mxGeometry width="50" height="50" relative="1" as="geometry">
            <mxPoint x="-130" y="340" as="sourcePoint" />
            <mxPoint x="-130" y="390" as="targetPoint" />
          </mxGeometry>
        </mxCell>
        <mxCell id="OuBc7uFUmqyPZBF64Fwl-33" value="TRUE" style="text;strokeColor=none;align=center;fillColor=none;html=1;verticalAlign=middle;whiteSpace=wrap;rounded=0;" vertex="1" parent="1">
          <mxGeometry x="-130" y="340" width="60" height="30" as="geometry" />
        </mxCell>
        <mxCell id="OuBc7uFUmqyPZBF64Fwl-34" value="Виведення поточного балансу" style="shape=parallelogram;perimeter=parallelogramPerimeter;whiteSpace=wrap;html=1;fixedSize=1;" vertex="1" parent="1">
          <mxGeometry x="-210" y="400" width="160" height="60" as="geometry" />
        </mxCell>
        <mxCell id="OuBc7uFUmqyPZBF64Fwl-40" value="" style="edgeStyle=orthogonalEdgeStyle;rounded=0;orthogonalLoop=1;jettySize=auto;html=1;" edge="1" parent="1" source="OuBc7uFUmqyPZBF64Fwl-36" target="OuBc7uFUmqyPZBF64Fwl-39">
          <mxGeometry relative="1" as="geometry" />
        </mxCell>
        <mxCell id="OuBc7uFUmqyPZBF64Fwl-43" value="" style="edgeStyle=orthogonalEdgeStyle;rounded=0;orthogonalLoop=1;jettySize=auto;html=1;" edge="1" parent="1" source="OuBc7uFUmqyPZBF64Fwl-36" target="OuBc7uFUmqyPZBF64Fwl-42">
          <mxGeometry relative="1" as="geometry" />
        </mxCell>
        <mxCell id="OuBc7uFUmqyPZBF64Fwl-36" value="operation == 2" style="rhombus;whiteSpace=wrap;html=1;" vertex="1" parent="1">
          <mxGeometry x="-380" y="260" width="100" height="80" as="geometry" />
        </mxCell>
        <mxCell id="OuBc7uFUmqyPZBF64Fwl-38" value="FALSE" style="text;strokeColor=none;align=center;fillColor=none;html=1;verticalAlign=middle;whiteSpace=wrap;rounded=0;" vertex="1" parent="1">
          <mxGeometry x="-250" y="270" width="60" height="30" as="geometry" />
        </mxCell>
        <mxCell id="OuBc7uFUmqyPZBF64Fwl-49" value="" style="edgeStyle=orthogonalEdgeStyle;rounded=0;orthogonalLoop=1;jettySize=auto;html=1;" edge="1" parent="1" source="OuBc7uFUmqyPZBF64Fwl-39" target="OuBc7uFUmqyPZBF64Fwl-48">
          <mxGeometry relative="1" as="geometry" />
        </mxCell>
        <mxCell id="OuBc7uFUmqyPZBF64Fwl-39" value="Введення депозиту" style="shape=parallelogram;perimeter=parallelogramPerimeter;whiteSpace=wrap;html=1;fixedSize=1;" vertex="1" parent="1">
          <mxGeometry x="-405" y="400" width="150" height="60" as="geometry" />
        </mxCell>
        <mxCell id="OuBc7uFUmqyPZBF64Fwl-41" value="TRUE" style="text;strokeColor=none;align=center;fillColor=none;html=1;verticalAlign=middle;whiteSpace=wrap;rounded=0;" vertex="1" parent="1">
          <mxGeometry x="-330" y="350" width="60" height="30" as="geometry" />
        </mxCell>
        <mxCell id="OuBc7uFUmqyPZBF64Fwl-46" value="" style="edgeStyle=orthogonalEdgeStyle;rounded=0;orthogonalLoop=1;jettySize=auto;html=1;" edge="1" parent="1" source="OuBc7uFUmqyPZBF64Fwl-42" target="OuBc7uFUmqyPZBF64Fwl-45">
          <mxGeometry relative="1" as="geometry" />
        </mxCell>
        <mxCell id="OuBc7uFUmqyPZBF64Fwl-42" value="operation == 3" style="rhombus;whiteSpace=wrap;html=1;" vertex="1" parent="1">
          <mxGeometry x="-580" y="260" width="100" height="80" as="geometry" />
        </mxCell>
        <mxCell id="OuBc7uFUmqyPZBF64Fwl-44" value="FALSE" style="text;strokeColor=none;align=center;fillColor=none;html=1;verticalAlign=middle;whiteSpace=wrap;rounded=0;" vertex="1" parent="1">
          <mxGeometry x="-450" y="270" width="60" height="30" as="geometry" />
        </mxCell>
        <mxCell id="OuBc7uFUmqyPZBF64Fwl-61" value="" style="edgeStyle=orthogonalEdgeStyle;rounded=0;orthogonalLoop=1;jettySize=auto;html=1;" edge="1" parent="1" source="OuBc7uFUmqyPZBF64Fwl-45" target="OuBc7uFUmqyPZBF64Fwl-60">
          <mxGeometry relative="1" as="geometry" />
        </mxCell>
        <mxCell id="OuBc7uFUmqyPZBF64Fwl-45" value="Введення кількості коштів,які ми хочемо зняти" style="shape=parallelogram;perimeter=parallelogramPerimeter;whiteSpace=wrap;html=1;fixedSize=1;" vertex="1" parent="1">
          <mxGeometry x="-642.5" y="400" width="225" height="60" as="geometry" />
        </mxCell>
        <mxCell id="OuBc7uFUmqyPZBF64Fwl-51" value="" style="edgeStyle=orthogonalEdgeStyle;rounded=0;orthogonalLoop=1;jettySize=auto;html=1;" edge="1" parent="1" source="OuBc7uFUmqyPZBF64Fwl-48" target="OuBc7uFUmqyPZBF64Fwl-50">
          <mxGeometry relative="1" as="geometry" />
        </mxCell>
        <mxCell id="OuBc7uFUmqyPZBF64Fwl-48" value="Зміна балансу" style="whiteSpace=wrap;html=1;" vertex="1" parent="1">
          <mxGeometry x="-390" y="500" width="120" height="60" as="geometry" />
        </mxCell>
        <mxCell id="OuBc7uFUmqyPZBF64Fwl-50" value="Виведення поточного балансу" style="shape=parallelogram;perimeter=parallelogramPerimeter;whiteSpace=wrap;html=1;fixedSize=1;" vertex="1" parent="1">
          <mxGeometry x="-410" y="600" width="160" height="60" as="geometry" />
        </mxCell>
        <mxCell id="OuBc7uFUmqyPZBF64Fwl-55" value="" style="edgeStyle=orthogonalEdgeStyle;rounded=0;orthogonalLoop=1;jettySize=auto;html=1;" edge="1" parent="1" source="OuBc7uFUmqyPZBF64Fwl-52" target="OuBc7uFUmqyPZBF64Fwl-54">
          <mxGeometry relative="1" as="geometry" />
        </mxCell>
        <mxCell id="OuBc7uFUmqyPZBF64Fwl-52" value="Зміна балансу" style="whiteSpace=wrap;html=1;" vertex="1" parent="1">
          <mxGeometry x="-590" y="720" width="120" height="60" as="geometry" />
        </mxCell>
        <mxCell id="OuBc7uFUmqyPZBF64Fwl-54" value="Виведення поточного балансу" style="shape=parallelogram;perimeter=parallelogramPerimeter;whiteSpace=wrap;html=1;fixedSize=1;" vertex="1" parent="1">
          <mxGeometry x="-610" y="830" width="160" height="60" as="geometry" />
        </mxCell>
        <mxCell id="OuBc7uFUmqyPZBF64Fwl-56" value="&lt;font style=&quot;font-size: 18px;&quot;&gt;End&lt;/font&gt;" style="ellipse;whiteSpace=wrap;html=1;" vertex="1" parent="1">
          <mxGeometry x="105" y="750" width="120" height="80" as="geometry" />
        </mxCell>
        <mxCell id="OuBc7uFUmqyPZBF64Fwl-57" value="" style="endArrow=none;html=1;rounded=0;" edge="1" parent="1">
          <mxGeometry width="50" height="50" relative="1" as="geometry">
            <mxPoint x="280" y="400" as="sourcePoint" />
            <mxPoint x="280" y="790" as="targetPoint" />
          </mxGeometry>
        </mxCell>
        <mxCell id="OuBc7uFUmqyPZBF64Fwl-58" value="" style="endArrow=classic;html=1;rounded=0;entryX=1;entryY=0.5;entryDx=0;entryDy=0;" edge="1" parent="1" target="OuBc7uFUmqyPZBF64Fwl-56">
          <mxGeometry width="50" height="50" relative="1" as="geometry">
            <mxPoint x="280" y="790" as="sourcePoint" />
            <mxPoint x="330" y="740" as="targetPoint" />
          </mxGeometry>
        </mxCell>
        <mxCell id="OuBc7uFUmqyPZBF64Fwl-59" value="TRUE" style="text;strokeColor=none;align=center;fillColor=none;html=1;verticalAlign=middle;whiteSpace=wrap;rounded=0;" vertex="1" parent="1">
          <mxGeometry x="-530" y="350" width="60" height="30" as="geometry" />
        </mxCell>
        <mxCell id="OuBc7uFUmqyPZBF64Fwl-62" value="" style="edgeStyle=orthogonalEdgeStyle;rounded=0;orthogonalLoop=1;jettySize=auto;html=1;" edge="1" parent="1" source="OuBc7uFUmqyPZBF64Fwl-60" target="OuBc7uFUmqyPZBF64Fwl-52">
          <mxGeometry relative="1" as="geometry" />
        </mxCell>
        <mxCell id="OuBc7uFUmqyPZBF64Fwl-60" value="Amount &amp;gt; InitialBalance" style="rhombus;whiteSpace=wrap;html=1;" vertex="1" parent="1">
          <mxGeometry x="-605" y="521.25" width="150" height="127.5" as="geometry" />
        </mxCell>
        <mxCell id="OuBc7uFUmqyPZBF64Fwl-63" value="FALSE" style="text;strokeColor=none;align=center;fillColor=none;html=1;verticalAlign=middle;whiteSpace=wrap;rounded=0;" vertex="1" parent="1">
          <mxGeometry x="-530" y="680" width="60" height="30" as="geometry" />
        </mxCell>
        <mxCell id="OuBc7uFUmqyPZBF64Fwl-73" value="" style="endArrow=none;html=1;rounded=0;" edge="1" parent="1">
          <mxGeometry width="50" height="50" relative="1" as="geometry">
            <mxPoint x="-680" y="585" as="sourcePoint" />
            <mxPoint x="-605" y="584.76" as="targetPoint" />
          </mxGeometry>
        </mxCell>
        <mxCell id="OuBc7uFUmqyPZBF64Fwl-74" value="" style="endArrow=none;html=1;rounded=0;" edge="1" parent="1">
          <mxGeometry width="50" height="50" relative="1" as="geometry">
            <mxPoint x="-680" y="584" as="sourcePoint" />
            <mxPoint x="-680" y="370" as="targetPoint" />
          </mxGeometry>
        </mxCell>
        <mxCell id="OuBc7uFUmqyPZBF64Fwl-75" value="" style="endArrow=classic;html=1;rounded=0;entryX=-0.015;entryY=0.643;entryDx=0;entryDy=0;entryPerimeter=0;" edge="1" parent="1" target="OuBc7uFUmqyPZBF64Fwl-59">
          <mxGeometry width="50" height="50" relative="1" as="geometry">
            <mxPoint x="-680" y="370" as="sourcePoint" />
            <mxPoint x="-630" y="320" as="targetPoint" />
          </mxGeometry>
        </mxCell>
        <mxCell id="OuBc7uFUmqyPZBF64Fwl-76" value="TRUE" style="text;strokeColor=none;align=center;fillColor=none;html=1;verticalAlign=middle;whiteSpace=wrap;rounded=0;" vertex="1" parent="1">
          <mxGeometry x="-665" y="555" width="60" height="30" as="geometry" />
        </mxCell>
        <mxCell id="OuBc7uFUmqyPZBF64Fwl-77" value="" style="endArrow=classic;html=1;rounded=0;" edge="1" parent="1">
          <mxGeometry width="50" height="50" relative="1" as="geometry">
            <mxPoint x="220" y="635" as="sourcePoint" />
            <mxPoint x="280" y="635" as="targetPoint" />
          </mxGeometry>
        </mxCell>
        <mxCell id="OuBc7uFUmqyPZBF64Fwl-81" value="" style="endArrow=none;html=1;rounded=0;" edge="1" parent="1">
          <mxGeometry width="50" height="50" relative="1" as="geometry">
            <mxPoint x="-530" y="960" as="sourcePoint" />
            <mxPoint x="400" y="960" as="targetPoint" />
          </mxGeometry>
        </mxCell>
        <mxCell id="OuBc7uFUmqyPZBF64Fwl-82" value="" style="endArrow=none;html=1;rounded=0;" edge="1" parent="1">
          <mxGeometry width="50" height="50" relative="1" as="geometry">
            <mxPoint x="400" y="960" as="sourcePoint" />
            <mxPoint x="400" y="330" as="targetPoint" />
          </mxGeometry>
        </mxCell>
        <mxCell id="OuBc7uFUmqyPZBF64Fwl-83" value="" style="endArrow=classic;html=1;rounded=0;" edge="1" parent="1">
          <mxGeometry width="50" height="50" relative="1" as="geometry">
            <mxPoint x="400" y="330" as="sourcePoint" />
            <mxPoint x="160" y="330" as="targetPoint" />
          </mxGeometry>
        </mxCell>
        <mxCell id="OuBc7uFUmqyPZBF64Fwl-84" value="" style="endArrow=classic;html=1;rounded=0;" edge="1" parent="1">
          <mxGeometry width="50" height="50" relative="1" as="geometry">
            <mxPoint x="-530" y="890" as="sourcePoint" />
            <mxPoint x="-530" y="960" as="targetPoint" />
          </mxGeometry>
        </mxCell>
        <mxCell id="OuBc7uFUmqyPZBF64Fwl-85" value="" style="endArrow=classic;html=1;rounded=0;" edge="1" parent="1">
          <mxGeometry width="50" height="50" relative="1" as="geometry">
            <mxPoint x="-330" y="660" as="sourcePoint" />
            <mxPoint x="-330" y="960" as="targetPoint" />
          </mxGeometry>
        </mxCell>
        <mxCell id="OuBc7uFUmqyPZBF64Fwl-86" value="" style="endArrow=classic;html=1;rounded=0;" edge="1" parent="1">
          <mxGeometry width="50" height="50" relative="1" as="geometry">
            <mxPoint x="-130" y="460" as="sourcePoint" />
            <mxPoint x="-130" y="960.8420924136514" as="targetPoint" />
          </mxGeometry>
        </mxCell>
      </root>
    </mxGraphModel>
  </diagram>
</mxfile>
